#!OML:ASF E:\basketball\basketball\Project 1\Capture day 1\Session 1\Subject.ASF
:FULLY-SPECIFIED
:DEGREES
115
root -4.61829 13.3132 -6.38556 -287.733 81.3145 -293.579
lowerback 29.7218 0.213766 -19.072
upperback 10.281 -3.99241 -1.08149
thorax -2.61665 -1.94357 9.88804
lowerneck 0.0661876 -11.5769 -15.612
upperneck -21.2771 -10.846 39.655
head -1.94698 -6.59525 16.7527
rclavicle 2.3059e-014 -3.89618e-014
rhumerus -28.819 -41.2916 -59.4277
rradius 72.9771
rwrist -56.7756
rhand -19.3111 21.2159
rfingers 7.12502
rthumb 7.0049 -8.6482
lclavicle 2.3059e-014 -3.89618e-014
lhumerus -20.5917 0.545777 70.2413
lradius 59.4069
lwrist 23.1174
lhand -32.398 35.8141
lfingers 7.12502
lthumb -5.633 65.7192
rfemur -65.8403 -9.64858 41.2818
rtibia 92.9397
rfoot -16.3585 -13.5275
rtoes 6.28892
lfemur -19.888 20.8666 0.197918
ltibia 55.3175
lfoot -22.6309 -8.37242
ltoes -49.4594
116
root -4.30468 13.3837 -6.33327 -289.151 80.688 -295.288
lowerback 28.6251 -0.220315 -19.2454
upperback 10.3764 -4.37058 -1.24637
thorax -1.953 -2.20655 9.86719
lowerneck -0.153731 -11.3483 -15.7737
upperneck -20.9093 -10.616 39.506
head -1.87942 -6.42652 16.7124
rclavicle -5.40694e-014 1.74931e-014
rhumerus -29.1534 -42.1388 -60.6833
rradius 73.8902
rwrist -61.0268
rhand -18.7096 20.6293
rfingers 7.12502
rthumb 7.58548 -9.21471
lclavicle -5.40694e-014 1.74931e-014
lhumerus -19.3971 0.0693043 70.3698
lradius 62.0797
lwrist 23.0348
lhand -32.6607 34.8
lfingers 7.12502
lthumb -5.88662 64.6982
rfemur -66.6979 -9.06056 41.1598
rtibia 91.5845
rfoot -15.7594 -14.9735
rtoes 6.70679
lfemur -17.2592 20.3057 0.0261531
ltibia 52.7567
lfoot -22.0415 -8.16735
ltoes -49.6374
117
root -3.98009 13.4677 -6.27492 -289.533 79.9865 -295.836
lowerback 28.7367 -0.467194 -19.898
upperback 9.61261 -5.04742 -0.84514
thorax -2.54605 -2.49404 10.8244
lowerneck 0.052049 -10.8381 -16.3508
upperneck -19.8249 -10.3412 38.4814
head -1.7851 -6.17815 16.3384
rclavicle 1.90833e-014 2.14687e-014
rhumerus -29.9893 -41.5449 -60.7359
rradius 74.6902
rwrist -63.7547
rhand -18.707 19.7129
rfingers 7.12502
rthumb 7.58795 -10.131
lclavicle 1.90833e-014 2.14687e-014
lhumerus -19.9517 0.00221597 71.356
lradius 64.8961
lwrist 22.795
lhand -33.4323 32.9225
lfingers 7.12502
lthumb -6.63151 62.7987
rfemur -67.2666 -8.8155 40.7099
rtibia 90.1669
rfoot -15.6245 -15.663
rtoes 7.96197
lfemur -14.4716 19.2656 -0.352919
ltibia 49.9554
lfoot -21.0469 -8.12012
ltoes -49.2068
118
root -3.649 13.555 -6.217 -291.054 79.246 -297.491
lowerback 28.3623 -0.884612 -20.0138
upperback 9.19286 -5.63859 -0.882097
thorax -2.6686 -2.76504 10.9903
lowerneck -0.454568 -10.5531 -16.537
upperneck -18.6538 -10.2648 37.7725
head -1.46309 -6.00067 15.9377
rclavicle 3.02153e-014 1.66979e-014
rhumerus -30.4383 -41.2859 -61.587
rradius 75.38
rwrist -64.6655
rhand -19.1714 18.9482
rfingers 7.12502
rthumb 7.13972 -10.9114
lclavicle 3.02153e-014 1.66979e-014
lhumerus -20.3049 -0.6026 71.8051
lradius 67.6731
lwrist 22.4343
lhand -34.2973 30.0356
lfingers 7.12502
lthumb -7.46653 59.8838
rfemur -67.5277 -8.46749 40.1163
rtibia 88.7216
rfoot -16.2707 -15.4609
rtoes 10.3689
lfemur -11.5188 18.0411 -0.757974
ltibia 46.9678
lfoot -19.7656 -7.96627
ltoes -48.3243
119
root -3.3167 13.6401 -6.15456 -293.411 78.5018 -300.108
lowerback 27.7286 -1.26231 -20.0849
upperback 8.81079 -6.10709 -0.856393
thorax -2.6733 -2.99499 11.1583
lowerneck -1.04661 -10.3067 -16.758
upperneck -17.6239 -10.1807 37.1379
head -1.1538 -5.82273 15.5981
rclavicle -4.77083e-015 6.91771e-014
rhumerus -30.6254 -40.8549 -62.4731
rradius 75.9332
rwrist -64.47
rhand -19.7427 18.7751
rfingers 7.12502
rthumb 6.58819 -11.1024
lclavicle -4.77083e-015 6.91771e-014
lhumerus -20.9456 -1.40469 72.3757
lradius 70.5591
lwrist 21.84
lhand -35.4118 26.2311
lfingers 7.12502
lthumb -8.54215 56.0383
rfemur -67.7666 -7.90793 39.5632
rtibia 87.3643
rfoot -16.7558 -15.4399
rtoes 14.0928
lfemur -8.53135 16.842 -1.1572
ltibia 43.8422
lfoot -18.4906 -6.90848
ltoes -48.582
120
root -2.97523 13.7258 -6.08746 -294.8 77.854 -301.805
lowerback 26.897 -1.72873 -19.9514
upperback 8.48422 -6.58194 -0.832553
thorax -2.55204 -3.24104 11.2055
lowerneck -1.27303 -9.97232 -16.7731
upperneck -16.8055 -9.9436 36.299
head -1.05404 -5.61668 15.2011
rclavicle 1.90833e-014 -1.11319e-014
rhumerus -30.7972 -40.4782 -63.2883
rradius 76.6025
rwrist -63.9164
rhand -20.3005 18.9422
rfingers 7.12502
rthumb 6.04975 -10.9514
lclavicle 1.90833e-014 -1.11319e-014
lhumerus -21.7208 -2.5842 72.9951
lradius 73.2782
lwrist 21.0067
lhand -36.041 28.0955
lfingers 7.12502
lthumb -9.14938 57.8771
rfemur -68.0223 -7.71246 39.1259
rtibia 86.1925
rfoot -16.7349 -15.8721
rtoes 16.141
lfemur -5.5699 15.4942 -1.61485
ltibia 40.6307
lfoot -16.9446 -5.75965
ltoes -48.6771
121
root -2.62381 13.817 -6.01906 -295.006 77.2021 -302.239
lowerback 26.1501 -2.25281 -19.7181
upperback 8.1573 -7.12187 -0.817774
thorax -2.45632 -3.51189 11.2
lowerneck -1.35963 -9.60961 -16.5776
upperneck -16.0595 -9.66964 35.1598
head -1.05252 -5.41037 14.6583
rclavicle 7.63333e-014 -5.96354e-014
rhumerus -30.9865 -40.2351 -63.8397
rradius 77.3155
rwrist -63.0534
rhand -20.5907 19.276
rfingers 7.12502
rthumb 5.76952 -10.6254
lclavicle 7.63333e-014 -5.96354e-014
lhumerus -22.6753 -4.11376 73.6789
lradius 75.6244
lwrist 20.0515
lhand -37.249 26.3341
lfingers 7.12502
lthumb -10.3149 56.0611
rfemur -68.1724 -7.91566 38.5679
rtibia 85.2049
rfoot -16.6188 -16.3627
rtoes 16.6386
lfemur -2.7142 13.8517 -2.30869
ltibia 37.3777
lfoot -14.9216 -4.65238
ltoes -48.3618
122
root -2.27018 13.909 -5.94884 -295.304 76.5117 -302.743
lowerback 25.4859 -2.75791 -19.543
upperback 7.79427 -7.67519 -0.705893
thorax -2.40745 -3.78736 11.327
lowerneck -1.87987 -9.3494 -16.5996
upperneck -15.1299 -9.53729 34.16
head -0.843135 -5.22851 14.1758
rclavicle -4.53229e-014 -1.59028e-015
rhumerus -30.8719 -39.9013 -64.2451
rradius 77.9451
rwrist -61.5766
rhand -20.7946 19.7113
rfingers 7.12502
rthumb 5.57266 -10.1954
lclavicle -4.53229e-014 -1.59028e-015
lhumerus -23.881 -5.73957 74.5105
lradius 77.4964
lwrist 19.0998
lhand -37.2461 27.0398
lfingers 7.12502
lthumb -10.3121 56.767
rfemur -68.1955 -8.16689 37.9207
rtibia 84.3157
rfoot -16.6952 -16.5613
rtoes 17.8228
lfemur 0.0756854 12.058 -3.1356
ltibia 34.0985
lfoot -12.5594 -3.35149
ltoes -48.1631
123
root -1.91277 13.9939 -5.87636 -295.98 75.708 -303.694
lowerback 24.7888 -3.29242 -19.9385
upperback 7.22224 -8.42538 -0.147829
thorax -2.35151 -4.17969 12.2545
lowerneck -2.03563 -8.74104 -17.4974
upperneck -14.2072 -8.97185 33.0189
head -0.773513 -4.82629 13.9055
rclavicle 2.14687e-014 -7.95139e-015
rhumerus -30.0891 -38.5502 -64.4828
rradius 78.5885
rwrist -59.7497
rhand -21.2876 20.1349
rfingers 7.12502
rthumb 5.09668 -9.78379
lclavicle 2.14687e-014 -7.95139e-015
lhumerus -25.9127 -6.46927 75.9589
lradius 79.1125
lwrist 17.7714
lhand -37.7579 26.485
lfingers 7.12502
lthumb -10.8057 56.1871
rfemur -68.2108 -8.43425 37.3177
rtibia 83.586
rfoot -16.649 -16.7788
rtoes 18.9298
lfemur 2.82931 10.4228 -4.07225
ltibia 30.8177
lfoot -9.89688 -2.04378
ltoes -47.6821
